PathFileType	4	(X/Y/Z)	RBDS012static.trc
DataRate	CameraRate	NumFrames	NumMarkers	Units	OrigDataRate	OrigDataStartFrame	OrigNumFrames
150.000000	150.000000	4	48	mm	150.000000	37	150
Frame#	Time	L.Ankle			L.Ankle.Medial			L.ASIS			L.GTR			L.Heel.Bottom			L.Heel.Lateral			L.Heel.Top			L.HF			L.Iliac.Crest			L.Knee			L.Knee.Medial			L.MT1			L.MT2			L.MT5			L.PSIS			L.Shank.Bottom.Lateral			L.Shank.Bottom.Medial			L.Shank.Top.Lateral			L.Shank.Top.Medial			L.Thigh.Bottom.Lateral			L.Thigh.Bottom.Medial			L.Thigh.Top.Lateral			L.Thigh.Top.Medial			L.TT			R.Ankle			R.Ankle.Medial			R.ASIS			R.GTR			R.Heel.Bottom			R.Heel.Lateral			R.Heel.Top			R.HF			R.Iliac.Crest			R.Knee			R.Knee.Medial			R.MT1			R.MT2			R.MT5			R.PSIS			R.Shank.Bottom.Lateral			R.Shank.Bottom.Medial			R.Shank.Top.Lateral			R.Shank.Top.Medial			R.Thigh.Bottom.Lateral			R.Thigh.Bottom.Medial			R.Thigh.Top.Lateral			R.Thigh.Top.Medial			R.TT			
		X1	Y1	Z1	X2	Y2	Z2	X3	Y3	Z3	X4	Y4	Z4	X5	Y5	Z5	X6	Y6	Z6	X7	Y7	Z7	X8	Y8	Z8	X9	Y9	Z9	X10	Y10	Z10	X11	Y11	Z11	X12	Y12	Z12	X13	Y13	Z13	X14	Y14	Z14	X15	Y15	Z15	X16	Y16	Z16	X17	Y17	Z17	X18	Y18	Z18	X19	Y19	Z19	X20	Y20	Z20	X21	Y21	Z21	X22	Y22	Z22	X23	Y23	Z23	X24	Y24	Z24	X25	Y25	Z25	X26	Y26	Z26	X27	Y27	Z27	X28	Y28	Z28	X29	Y29	Z29	X30	Y30	Z30	X31	Y31	Z31	X32	Y32	Z32	X33	Y33	Z33	X34	Y34	Z34	X35	Y35	Z35	X36	Y36	Z36	X37	Y37	Z37	X38	Y38	Z38	X39	Y39	Z39	X40	Y40	Z40	X41	Y41	Z41	X42	Y42	Z42	X43	Y43	Z43	X44	Y44	Z44	X45	Y45	Z45	X46	Y46	Z46	X47	Y47	Z47	X48	Y48	Z48	

38	0.2466666666666667	715.43017578125	107.1738052368164	1041.952392578125	743.03955078125	120.0864028930664	1126.00146484375	864.1005859375	1038.912963867188	1083.247436523438	781.3140258789063	965.1365966796875	1042.919311523438	642.4869384765625	43.12717056274414	1086.017578125	673.7817993164063	55.55586624145508	1040.09814453125	653.0336303710938	92.92822265625	1084.983520507813	755.8345947265625	482.6308288574219	1046.1962890625	806.2514038085938	1105.426147460938	1051.014526367188	756.8914184570313	556.8318481445313	1047.795166015625	765.7139892578125	531.8192138671875	1177.8720703125	865.33544921875	56.70615386962891	1128.936157226563	878.6320190429688	66.45305633544922	1081.93505859375	841.7969970703125	51.38060760498047	1009.948059082031	692.51611328125	1079.861450195313	1174.479858398438	724.802001953125	187.1798858642578	1037.391479492188	680.8912963867188	187.9961547851563	1070.942749023438	718.0923461914063	267.1732482910156	1028.434448242188	677.0105590820313	268.6767883300781	1063.2109375	789.70703125	656.1112060546875	1030.097900390625	723.4489135742188	654.9226684570313	1059.88720703125	779.6840209960938	766.036865234375	1022.381042480469	720.741455078125	765.4783935546875	1057.0986328125	810.8905639648438	464.5214233398438	1091.897705078125	722.1217651367188	110.1955947875977	1406.04736328125	749.7713012695313	123.5351104736328	1324.507202148438	864.2553100585938	1051.1005859375	1365.217163085938	792.7208862304688	961.7796020507813	1408.154663085938	642.6674194335938	44.92983627319336	1373.102172851563	665.1506958007813	62.60385131835938	1408.735473632813	655.1890869140625	94.61933135986328	1370.546508789063	775.3617553710938	480.5150146484375	1400.036376953125	808.9476318359375	1108.988891601563	1390.9951171875	773.5565795898438	556.3021240234375	1397.814086914063	783.6412353515625	537.9541015625	1268.30810546875	864.906982421875	58.60363388061523	1323.046264648438	879.7881469726563	67.07718658447266	1373.519287109375	841.2671508789063	52.91570663452148	1441.976806640625	693.7396240234375	1078.7783203125	1278.32177734375	723.3107299804688	192.7890777587891	1408.898193359375	684.4488525390625	200.9569091796875	1377.178833007813	729.117431640625	277.2531127929688	1420.2275390625	687.011474609375	281.2083740234375	1387.858764648438	774.3361206054688	645.2024536132813	1411.222778320313	716.6265869140625	644.8380126953125	1364.929565429688	765.7743530273438	754.6781005859375	1415.68896484375	713.2266845703125	755.2036743164063	1370.458129882813	828.6748657226563	466.1493835449219	1353.933349609375	
39	0.2533333333333334	715.4395141601563	107.1704406738281	1041.951171875	743.0466918945313	120.1037979125977	1125.997802734375	864.0787963867188	1038.91845703125	1083.25244140625	781.301025390625	965.1329345703125	1042.916625976563	642.4866943359375	43.13592147827148	1086.005249023438	673.7861938476563	55.55709075927734	1040.096557617188	653.03466796875	92.92338562011719	1084.985229492188	755.8310546875	482.636962890625	1046.1923828125	806.2172241210938	1105.434448242188	1051.003295898438	756.883056640625	556.8296508789063	1047.79296875	765.6895141601563	531.82861328125	1177.864379882813	865.3285522460938	56.71847915649414	1128.934936523438	878.6400756835938	66.45188140869141	1081.942993164063	841.8060913085938	51.38012313842773	1009.952514648438	692.4810180664063	1079.864379882813	1174.47021484375	724.7999877929688	187.1841125488281	1037.386352539063	680.8861694335938	187.9912109375	1070.938842773438	718.087158203125	267.1802062988281	1028.432861328125	677.0074462890625	268.6654357910156	1063.198852539063	789.688232421875	656.1188354492188	1030.092041015625	723.4408569335938	654.9234619140625	1059.871826171875	779.6709594726563	766.04150390625	1022.373840332031	720.7135009765625	765.484619140625	1057.0859375	810.8745727539063	464.514892578125	1091.8974609375	722.1265869140625	110.1955261230469	1406.0380859375	749.7562255859375	123.5284957885742	1324.513427734375	864.226806640625	1051.101196289063	1365.231689453125	792.6986083984375	961.7853393554688	1408.156372070313	642.6666259765625	44.92262649536133	1373.098022460938	665.149169921875	62.59993743896484	1408.743041992188	655.188232421875	94.62689971923828	1370.535888671875	775.3401489257813	480.5195617675781	1400.0361328125	808.9332885742188	1109.00048828125	1390.98388671875	773.53759765625	556.310791015625	1397.813842773438	783.62353515625	537.9528198242188	1268.305053710938	864.9096069335938	58.6043815612793	1323.046264648438	879.7835693359375	67.07514190673828	1373.514770507813	841.2611694335938	52.91884613037109	1441.9775390625	693.7052612304688	1078.783813476563	1278.306640625	723.3025512695313	192.7933807373047	1408.899291992188	684.4360961914063	200.9589996337891	1377.17431640625	729.106689453125	277.2552795410156	1420.224853515625	686.99755859375	281.2103881835938	1387.853393554688	774.3087158203125	645.212158203125	1411.231323242188	716.6089477539063	644.8328857421875	1364.908813476563	765.7395629882813	754.6832885742188	1415.693115234375	713.2052612304688	755.2022094726563	1370.458129882813	828.649169921875	466.1582946777344	1353.939331054688	
40	0.26	715.4365234375	107.1815872192383	1041.93701171875	743.0477905273438	120.1018218994141	1126.000122070313	864.043701171875	1038.913208007813	1083.24169921875	781.271240234375	965.1398315429688	1042.9130859375	642.4862670898438	43.11869430541992	1086.008666992188	673.7879028320313	55.55096054077148	1040.083129882813	653.0320434570313	92.92317962646484	1084.975952148438	755.8250732421875	482.6357727050781	1046.173583984375	806.202880859375	1105.431518554688	1051.017456054688	756.8714599609375	556.8318481445313	1047.793579101563	765.68408203125	531.8165283203125	1177.864013671875	865.3340454101563	56.71478271484375	1128.9462890625	878.6343383789063	66.44510650634766	1081.939208984375	841.79638671875	51.37826156616211	1009.942932128906	692.4562377929688	1079.874877929688	1174.46630859375	724.802001953125	187.1748504638672	1037.377075195313	680.8821411132813	187.9960784912109	1070.933471679688	718.088623046875	267.1748657226563	1028.434814453125	677.0035400390625	268.6664733886719	1063.19873046875	789.6790161132813	656.11474609375	1030.085083007813	723.4325561523438	654.9300537109375	1059.859741210938	779.656005859375	766.0250854492188	1022.368957519531	720.6944580078125	765.47607421875	1057.067626953125	810.876953125	464.522216796875	1091.901245117188	722.1166381835938	110.1927947998047	1406.040283203125	749.7626953125	123.5337448120117	1324.516479492188	864.1993408203125	1051.105346679688	1365.22412109375	792.6692504882813	961.7825927734375	1408.149780273438	642.668212890625	44.92332077026367	1373.100952148438	665.151123046875	62.59631729125977	1408.740600585938	655.1856079101563	94.61893463134766	1370.547973632813	775.3259887695313	480.5260314941406	1400.046752929688	808.9234008789063	1109.017822265625	1390.983520507813	773.5098876953125	556.3150024414063	1397.81494140625	783.6024169921875	537.9537963867188	1268.3056640625	864.905029296875	58.60717391967773	1323.049926757813	879.7839965820313	67.07290649414063	1373.525024414063	841.2559204101563	52.93143844604492	1441.994873046875	693.6795043945313	1078.779296875	1278.301147460938	723.2843627929688	192.7971801757813	1408.907958984375	684.4268188476563	200.9603118896484	1377.176513671875	729.0951538085938	277.2557067871094	1420.2333984375	686.9873046875	281.2013244628906	1387.860595703125	774.2916259765625	645.212158203125	1411.2314453125	716.5875244140625	644.8329467773438	1364.907836914063	765.7089233398438	754.6768188476563	1415.686401367188	713.1793823242188	755.1996459960938	1370.43603515625	828.63232421875	466.160888671875	1353.951538085938	
41	0.2666666666666667	715.4285278320313	107.1771850585938	1041.944091796875	743.041748046875	120.10693359375	1125.993896484375	864.0223388671875	1038.916748046875	1083.23974609375	781.2493286132813	965.1488037109375	1042.907104492188	642.4906616210938	43.1212043762207	1086.02197265625	673.7855224609375	55.55315017700195	1040.086059570313	653.034423828125	92.91365051269531	1084.984741210938	755.8201293945313	482.6299743652344	1046.177368164063	806.17431640625	1105.436767578125	1051.010620117188	756.878173828125	556.82470703125	1047.790161132813	765.6664428710938	531.8335571289063	1177.859985351563	865.3289184570313	56.72770690917969	1128.942260742188	878.624755859375	66.44396209716797	1081.940307617188	841.8056030273438	51.38502502441406	1009.9560546875	692.4231567382813	1079.8720703125	1174.453247070313	724.7951049804688	187.1811981201172	1037.374389648438	680.8801879882813	187.9917602539063	1070.931640625	718.0743408203125	267.1791076660156	1028.429809570313	677.0015258789063	268.6656188964844	1063.19970703125	789.660888671875	656.1229248046875	1030.073120117188	723.41796875	654.91943359375	1059.853393554688	779.619384765625	766.0429077148438	1022.349792480469	720.6698608398438	765.4719848632813	1057.056518554688	810.8577880859375	464.5184326171875	1091.88671875	722.1184692382813	110.1889724731445	1406.02978515625	749.7545776367188	123.5382537841797	1324.51025390625	864.1749877929688	1051.106201171875	1365.216796875	792.6502685546875	961.7967529296875	1408.153564453125	642.6607666015625	44.91874313354492	1373.09912109375	665.144775390625	62.59841156005859	1408.73828125	655.1765747070313	94.62711334228516	1370.543212890625	775.30712890625	480.5263061523438	1400.042358398438	808.8982543945313	1109.0166015625	1390.979248046875	773.4998779296875	556.3134155273438	1397.808715820313	783.5828247070313	537.9463500976563	1268.308959960938	864.9053344726563	58.60723876953125	1323.0390625	879.7841796875	67.07814788818359	1373.521118164063	841.2648315429688	52.93872833251953	1441.98046875	693.6459350585938	1078.791625976563	1278.32275390625	723.285400390625	192.7923736572266	1408.906005859375	684.425048828125	200.9566497802734	1377.18212890625	729.0807495117188	277.264892578125	1420.235107421875	686.975341796875	281.2091064453125	1387.864868164063	774.2675170898438	645.2122192382813	1411.231811523438	716.5612182617188	644.829833984375	1364.911743164063	765.6887817382813	754.6845092773438	1415.687744140625	713.1529541015625	755.2011108398438	1370.44384765625	828.6244506835938	466.1702270507813	1353.950927734375	
